HIERARCHY
ROOT root
{
	OFFSET 0.000000 0.000000 0.000000
	CHANNELS 6 Xposition Yposition Zposition Zrotation Yrotation Xrotation
	JOINT lhip
	{
		OFFSET 0.058581 -0.082280 -0.017664
		CHANNELS 3 Zrotation Yrotation Xrotation
		JOINT lknee
		{
			OFFSET 0.043451 -0.386469 0.008037
			CHANNELS 3 Zrotation Yrotation Xrotation
			JOINT lankle
			{
				OFFSET -0.014790 -0.426874 -0.037428
				CHANNELS 3 Zrotation Yrotation Xrotation
				JOINT ltoe
				{
					OFFSET 0.041054 -0.060286 0.122042
					CHANNELS 3 Zrotation Yrotation Xrotation
					End Site
					{
						OFFSET 0.000000 0.000000 0.000000
					}
				}
			}
		}
	}
	JOINT rhip
	{
		OFFSET -0.060310 -0.090513 -0.013543
		CHANNELS 3 Zrotation Yrotation Xrotation
		JOINT rknee
		{
			OFFSET -0.043257 -0.383688 -0.004843
			CHANNELS 3 Zrotation Yrotation Xrotation
			JOINT rankle
			{
				OFFSET 0.019056 -0.420046 -0.034562
				CHANNELS 3 Zrotation Yrotation Xrotation
				JOINT rtoe
				{
					OFFSET -0.034840 -0.062106 0.130323
					CHANNELS 3 Zrotation Yrotation Xrotation
					End Site
					{
						OFFSET 0.000000 0.000000 0.000000
					}
				}
			}
		}
	}
	JOINT lowerback
	{
		OFFSET 0.004439 0.124404 -0.038385
		CHANNELS 3 Zrotation Yrotation Xrotation
		JOINT upperback
		{
			OFFSET 0.004488 0.137956 0.026820
			CHANNELS 3 Zrotation Yrotation Xrotation
			JOINT chest
			{
				OFFSET -0.002265 0.056032 0.002855
				CHANNELS 3 Zrotation Yrotation Xrotation
				JOINT lowerneck
				{
					OFFSET -0.013390 0.211636 -0.033468
					CHANNELS 3 Zrotation Yrotation Xrotation
					JOINT upperneck
					{
						OFFSET 0.010113 0.088937 0.050410
						CHANNELS 3 Zrotation Yrotation Xrotation
						End Site
						{
							OFFSET 0.000000 0.000000 0.000000
						}
					}
				}
				JOINT lclavicle
				{
					OFFSET 0.071702 0.114000 -0.018898
					CHANNELS 3 Zrotation Yrotation Xrotation
					JOINT lshoulder
					{
						OFFSET 0.122921 0.045205 -0.019046
						CHANNELS 3 Zrotation Yrotation Xrotation
						JOINT lelbow
						{
							OFFSET 0.255332 -0.015649 -0.022946
							CHANNELS 3 Zrotation Yrotation Xrotation
							JOINT lwrist
							{
								OFFSET 0.265709 0.012698 -0.007375
								CHANNELS 3 Zrotation Yrotation Xrotation
								End Site
								{
									OFFSET 0.000000 0.000000 0.000000
								}
							}
						}
					}
				}
				JOINT rclavicle
				{
					OFFSET -0.082954 0.112472 -0.023707
					CHANNELS 3 Zrotation Yrotation Xrotation
					JOINT rshoulder
					{
						OFFSET -0.113228 0.046853 -0.008472
						CHANNELS 3 Zrotation Yrotation Xrotation
						JOINT relbow
						{
							OFFSET -0.260127 -0.014369 -0.031269
							CHANNELS 3 Zrotation Yrotation Xrotation
							JOINT rwrist
							{
								OFFSET -0.269108 0.006794 -0.006027
								CHANNELS 3 Zrotation Yrotation Xrotation
								End Site
								{
									OFFSET 0.000000 0.000000 0.000000
								}
							}
						}
					}
				}
			}
		}
	}
}
MOTION
Frames: 14
Frame Time: 0.033333
0.477382 0.222704 0.954724 139.443049 5.873279 141.353179 20.012938 -3.458912 -65.576902 3.952861 -3.473344 0.859428 -10.242573 -12.979778 5.914773 0.000000 -0.000000 0.000000 6.208580 -1.025164 -44.151685 -0.942601 -34.729960 -2.794532 -2.343773 -12.662431 -4.258221 0.000000 -0.000000 0.000000 -5.410120 6.450997 54.198610 -7.119725 -2.498424 -6.298682 1.942535 -0.324981 -0.308539 -11.952977 22.525146 -2.454289 4.323041 -0.585979 -22.970737 -14.881166 1.890280 -8.774507 -63.617200 -3.337693 26.846839 152.032494 -38.987025 -134.325917 -36.599211 -54.547320 -24.980908 11.497165 12.111434 0.337736 61.084098 -1.770814 20.035986 -155.325591 43.481332 -138.555950 32.779294 39.801462 -50.312450 
0.476597 0.221776 0.953843 139.813251 5.913625 141.532409 20.397146 -3.383307 -66.127242 3.706715 -3.350142 1.364067 -10.095405 -13.388270 5.601316 0.000000 -0.000000 0.000000 5.960398 -0.572770 -44.314767 -0.917625 -35.365404 -2.804645 -2.896318 -12.792072 -4.355544 0.000000 -0.000000 0.000000 -5.080486 7.358560 55.117123 -6.616399 -1.842994 -5.506682 2.230430 -0.138811 -0.697717 -11.083579 21.938503 0.131085 4.747981 -1.312347 -20.887303 -14.857654 -1.218716 -8.209820 -66.617897 -7.532030 29.732557 151.375709 -41.017432 -133.197862 -35.309183 -56.045401 -28.742323 12.289362 14.633998 -0.243548 65.750939 0.857924 22.319638 -153.803782 43.648087 -136.018443 30.634576 38.998881 -52.734572 
0.475097 0.220579 0.952483 140.202210 5.893768 142.483214 20.648909 -3.045019 -67.425572 3.476990 -3.003104 1.619259 -10.418925 -13.659663 6.040598 0.000000 -0.000000 0.000000 5.911682 -0.379974 -45.336433 -0.897303 -35.829182 -2.851373 -2.897585 -12.705145 -4.433317 0.000000 -0.000000 0.000000 -4.819430 7.383057 55.648000 -6.549646 -1.727535 -5.241495 2.286239 -0.082485 -0.067367 -10.764148 22.193782 2.750110 4.809868 -1.623482 -21.125113 -12.840783 -1.851472 -8.248236 -67.714219 -8.590890 30.873357 151.780548 -42.271152 -133.660248 -33.186986 -56.706447 -31.839020 10.271254 15.358935 -0.760763 67.090883 1.892235 23.381064 -154.727436 44.380755 -136.703433 27.550656 38.396102 -55.539642 
0.474451 0.218897 0.951119 141.275838 5.904944 144.173943 21.136041 -2.493658 -69.478711 3.244866 -3.060601 1.875840 -10.868071 -13.957143 6.445429 0.000000 -0.000000 0.000000 6.564747 -0.338111 -46.947887 -1.029369 -35.806985 -3.104918 -2.904521 -13.057633 -4.044657 0.000000 -0.000000 0.000000 -4.405868 6.737697 55.908753 -6.550881 -1.938302 -4.789908 2.198721 0.033382 1.360656 -10.550751 22.563198 2.473516 4.098567 -2.089549 -22.746103 -11.216370 -0.540961 -9.078853 -65.874010 -6.599954 29.621473 152.373972 -41.347638 -134.269869 -31.962400 -56.627309 -32.472572 8.903431 14.721388 -1.316048 64.950662 1.511211 22.452319 -154.567620 43.808055 -136.015874 27.964830 37.143868 -55.048234 
0.474557 0.218328 0.949077 142.208809 6.322531 145.741480 21.668373 -1.445621 -71.183417 2.812580 -3.149317 2.121703 -11.321374 -14.404523 6.461477 0.000000 -0.000000 0.000000 7.391753 0.093871 -48.433870 -1.321773 -35.929061 -3.043403 -2.985298 -13.077486 -4.016268 0.000000 -0.000000 0.000000 -4.216186 5.982569 56.576341 -6.823816 -1.865739 -3.175033 1.828668 0.160412 1.378070 -10.220006 23.317669 1.559690 3.430159 -2.719666 -25.117810 -10.772632 2.324455 -10.479755 -61.564183 -3.340990 27.102954 152.013368 -40.391565 -134.214932 -35.342153 -56.191325 -28.310535 8.159167 13.516496 -1.598371 60.116080 -0.418911 20.884163 -154.726305 44.021614 -136.155116 28.564506 38.932754 -52.086789 
0.474711 0.218935 0.947470 142.874756 6.315033 146.853157 21.884942 -1.074201 -72.270372 2.549330 -3.487113 2.014761 -11.560536 -14.356931 6.426622 0.000000 -0.000000 0.000000 7.565079 0.144372 -49.510425 -1.409754 -35.918345 -2.889047 -3.239826 -13.423881 -4.008663 0.000000 -0.000000 0.000000 -4.107454 5.267557 58.373460 -7.248074 -1.918890 -2.137521 1.630320 0.225386 1.596727 -10.652680 23.406142 0.503859 3.069941 -3.115227 -27.960092 -10.701199 4.439003 -11.648500 -56.935856 -0.010142 25.312190 152.784003 -39.455368 -135.759996 -33.616769 -56.881646 -28.632742 7.452825 11.741665 -1.948223 54.343114 -3.256410 18.753518 -155.305668 44.278349 -137.538777 29.742831 39.667310 -48.858849 
0.474727 0.219017 0.945301 143.408693 6.297367 148.079974 21.953433 -0.620299 -73.639069 2.365848 -3.671012 2.232500 -11.811960 -14.486799 6.342486 0.000000 -0.000000 0.000000 7.518314 0.234390 -50.749704 -1.394666 -35.945724 -2.698025 -3.591404 -13.809846 -3.996044 0.000000 -0.000000 0.000000 -4.022272 4.779175 59.366608 -7.747068 -1.731582 -0.473583 1.451224 0.262057 1.555364 -10.765500 23.494893 0.262700 2.813371 -3.645958 -30.631664 -10.210518 5.421564 -12.205086 -53.886789 2.896611 24.560166 153.135963 -38.344087 -136.700727 -34.659674 -55.664524 -26.388450 6.301076 10.456762 -1.980724 51.010942 -6.068090 17.366192 -155.954323 44.280334 -138.791863 30.290376 39.820387 -46.948900 
0.474700 0.219257 0.943199 143.869483 6.240671 149.480017 22.129527 -0.182242 -75.020316 2.223371 -3.508781 2.158893 -12.198420 -14.734907 6.663097 0.000000 -0.000000 0.000000 7.543577 0.292041 -52.104043 -1.457172 -36.047223 -2.674329 -3.704175 -13.689131 -4.007427 0.000000 -0.000000 0.000000 -3.857067 4.420305 59.900824 -8.108362 -1.567618 0.626480 1.408031 0.258575 1.869379 -10.992046 23.743953 0.464087 2.785341 -4.131188 -32.711252 -9.770277 5.296718 -11.900544 -53.991390 4.899455 24.023508 153.503773 -37.812720 -137.054315 -34.304648 -55.535095 -26.040669 5.326854 10.081601 -1.212753 50.080293 -8.343272 16.066523 -156.017328 44.095451 -138.588462 30.449845 39.833446 -45.831562 
0.475734 0.219797 0.941290 144.279567 6.059951 150.821786 22.187899 0.231302 -76.216936 1.988730 -3.128125 1.932736 -12.683156 -15.310639 7.024730 0.000000 -0.000000 0.000000 7.510147 0.328589 -53.299119 -1.986979 -35.789289 -2.226900 -3.653926 -12.973891 -4.484472 0.000000 -0.000000 0.000000 -3.634957 4.276243 60.167111 -8.244975 -1.680472 1.513764 1.549511 0.150212 1.738007 -11.305541 23.560329 1.003362 3.336496 -4.057843 -34.028788 -10.708969 3.453010 -10.688009 -55.637741 5.672054 23.410219 152.680703 -38.276172 -136.478136 -36.587820 -56.750903 -24.657390 5.449557 11.054921 0.313683 51.454771 -8.923704 14.605716 -155.513301 44.016460 -137.863588 31.843860 40.335936 -43.610692 
0.477481 0.220228 0.939909 144.537833 5.814108 151.865118 22.373086 0.471104 -77.030936 1.735152 -2.367344 1.704060 -12.795354 -16.088216 7.143677 0.000000 -0.000000 0.000000 7.264644 0.162674 -53.856686 -1.782501 -35.753897 -2.336473 -3.611501 -11.944870 -4.982189 0.000000 -0.000000 0.000000 -3.667209 4.029941 60.278381 -8.268022 -2.199843 2.300256 1.296575 0.079039 1.020929 -11.907414 23.896833 0.594965 3.451370 -4.010219 -33.640441 -11.634309 1.732434 -9.864487 -58.879286 4.353802 23.734480 151.574004 -39.237649 -135.142542 -38.215125 -57.626176 -24.483738 6.547592 12.768657 1.130997 54.784184 -6.788851 15.426195 -154.662335 44.291326 -136.250514 31.452706 40.305807 -43.840331 
0.479089 0.219601 0.939134 144.848257 5.543382 152.632076 22.489313 0.657462 -77.591642 1.401078 -1.931960 1.351651 -12.745313 -16.606835 7.352317 0.000000 -0.000000 0.000000 7.178607 0.187225 -54.065300 -1.495087 -35.962164 -3.110730 -3.936182 -11.688512 -5.092676 0.000000 -0.000000 0.000000 -3.803191 4.054762 60.001072 -8.076748 -2.721362 2.439888 1.304068 0.002405 0.474015 -12.023886 23.961538 -0.849416 3.535758 -3.225227 -32.473884 -12.549699 -0.887341 -8.999706 -61.194366 2.183392 25.229905 151.548829 -39.676605 -134.821875 -37.224525 -57.410073 -26.329737 8.019956 14.942686 1.164850 58.167163 -4.329017 17.160778 -153.531743 44.803559 -134.961675 30.025457 39.347794 -45.748636 
0.479115 0.216927 0.938141 145.371527 5.853096 153.131294 22.937242 1.131300 -78.329112 1.335513 -1.649141 1.753686 -12.698117 -16.846611 7.477174 0.000000 -0.000000 0.000000 7.657107 0.887973 -54.325898 -1.493965 -36.537456 -3.787881 -4.467657 -11.893643 -4.858145 0.000000 -0.000000 0.000000 -3.447831 4.058883 58.723895 -7.884408 -2.442164 2.231669 1.188521 0.063255 0.206897 -12.234858 23.803127 -1.147167 4.166585 -3.981289 -32.082787 -12.201685 -3.649880 -8.093325 -63.332349 0.309654 26.466643 151.838189 -40.743073 -134.097260 -36.394680 -57.678859 -28.123903 8.197887 16.836297 0.777954 62.512052 -3.025365 18.174766 -152.823983 45.141962 -133.779575 28.780338 39.025767 -48.180650 
0.480312 0.213894 0.937836 145.326828 6.158694 153.023129 23.151967 1.609613 -78.285121 1.200307 -1.346204 1.960596 -12.778301 -17.014410 7.801739 0.000000 -0.000000 0.000000 8.292289 1.325323 -54.513594 -2.053791 -36.571518 -3.470502 -4.791784 -12.001336 -4.721405 0.000000 -0.000000 0.000000 -3.318150 4.572053 57.573303 -7.843304 -2.164522 0.799758 1.291846 -0.133806 1.185734 -12.753679 24.026994 -2.242614 3.787166 -4.327534 -31.705824 -11.571700 -5.110805 -7.892804 -64.177652 -0.272799 27.070522 151.518747 -41.440792 -133.946217 -36.441552 -57.985529 -28.932126 8.264599 17.704416 0.190445 65.257786 -2.331923 18.662844 -152.603123 45.483586 -133.750412 28.294390 38.371083 -49.642997 
0.481659 0.212243 0.939506 144.924968 6.017962 151.991916 23.030333 1.326291 -77.255028 1.097688 -1.320943 1.909511 -12.587128 -16.790933 7.850721 0.000000 -0.000000 0.000000 8.561189 0.756940 -53.779965 -2.075880 -36.044066 -3.117520 -4.615445 -11.853645 -4.800455 0.000000 -0.000000 0.000000 -3.585574 4.688393 56.420858 -7.872925 -2.485793 0.888526 1.135580 -0.037478 1.151967 -12.691206 24.123576 -3.122839 3.434733 -4.820505 -31.014499 -10.918946 -4.654761 -8.100465 -62.772862 -0.156101 26.833079 151.850293 -41.548769 -135.151885 -35.832379 -57.632828 -28.888822 8.465397 18.135523 0.306087 65.017424 -1.713487 19.435974 -152.892088 46.026469 -134.683474 27.872601 38.082646 -49.856434 
